<mxfile host="app.diagrams.net" modified="2021-03-18T00:42:29.988Z" agent="5.0 (Windows NT 10.0; Win64; x64) AppleWebKit/537.36 (KHTML, like Gecko) Chrome/89.0.4389.82 Safari/537.36" etag="bmphnQ1Q7CWoBG4Y44L7" version="14.4.9" type="github">
  <diagram id="I5L6HJqoxFs4igtn9-ye" name="Page-1">
    <mxGraphModel dx="868" dy="482" grid="1" gridSize="10" guides="1" tooltips="1" connect="1" arrows="1" fold="1" page="1" pageScale="1" pageWidth="850" pageHeight="1100" math="0" shadow="0">
      <root>
        <mxCell id="0" />
        <mxCell id="1" parent="0" />
        <mxCell id="4aztvtjlA2lsHuUG9XYK-3" value="" style="edgeStyle=orthogonalEdgeStyle;rounded=0;orthogonalLoop=1;jettySize=auto;html=1;" edge="1" parent="1" source="4aztvtjlA2lsHuUG9XYK-1" target="4aztvtjlA2lsHuUG9XYK-2">
          <mxGeometry relative="1" as="geometry" />
        </mxCell>
        <mxCell id="4aztvtjlA2lsHuUG9XYK-5" value="" style="edgeStyle=orthogonalEdgeStyle;rounded=0;orthogonalLoop=1;jettySize=auto;html=1;" edge="1" parent="1" source="4aztvtjlA2lsHuUG9XYK-1" target="4aztvtjlA2lsHuUG9XYK-4">
          <mxGeometry relative="1" as="geometry" />
        </mxCell>
        <mxCell id="4aztvtjlA2lsHuUG9XYK-1" value="Start" style="rounded=1;whiteSpace=wrap;html=1;" vertex="1" parent="1">
          <mxGeometry x="210" width="120" height="60" as="geometry" />
        </mxCell>
        <mxCell id="4aztvtjlA2lsHuUG9XYK-7" value="" style="edgeStyle=orthogonalEdgeStyle;rounded=0;orthogonalLoop=1;jettySize=auto;html=1;" edge="1" parent="1" source="4aztvtjlA2lsHuUG9XYK-2" target="4aztvtjlA2lsHuUG9XYK-6">
          <mxGeometry relative="1" as="geometry" />
        </mxCell>
        <mxCell id="4aztvtjlA2lsHuUG9XYK-2" value="Input name" style="ellipse;whiteSpace=wrap;html=1;rounded=1;" vertex="1" parent="1">
          <mxGeometry x="210" y="130" width="120" height="60" as="geometry" />
        </mxCell>
        <mxCell id="4aztvtjlA2lsHuUG9XYK-8" style="edgeStyle=orthogonalEdgeStyle;rounded=0;orthogonalLoop=1;jettySize=auto;html=1;entryX=0;entryY=0.5;entryDx=0;entryDy=0;" edge="1" parent="1" source="4aztvtjlA2lsHuUG9XYK-4" target="4aztvtjlA2lsHuUG9XYK-6">
          <mxGeometry relative="1" as="geometry">
            <mxPoint x="200" y="320" as="targetPoint" />
            <Array as="points">
              <mxPoint x="135" y="300" />
            </Array>
          </mxGeometry>
        </mxCell>
        <mxCell id="4aztvtjlA2lsHuUG9XYK-4" value="Input your bid" style="ellipse;whiteSpace=wrap;html=1;rounded=1;" vertex="1" parent="1">
          <mxGeometry x="70" y="130" width="130" height="60" as="geometry" />
        </mxCell>
        <mxCell id="4aztvtjlA2lsHuUG9XYK-9" value="" style="edgeStyle=orthogonalEdgeStyle;rounded=0;orthogonalLoop=1;jettySize=auto;html=1;entryX=1;entryY=0.5;entryDx=0;entryDy=0;" edge="1" parent="1" source="4aztvtjlA2lsHuUG9XYK-6" target="4aztvtjlA2lsHuUG9XYK-1">
          <mxGeometry relative="1" as="geometry">
            <mxPoint x="400" y="30" as="targetPoint" />
            <Array as="points">
              <mxPoint x="400" y="300" />
              <mxPoint x="400" y="30" />
            </Array>
          </mxGeometry>
        </mxCell>
        <mxCell id="4aztvtjlA2lsHuUG9XYK-12" value="" style="edgeStyle=orthogonalEdgeStyle;rounded=0;orthogonalLoop=1;jettySize=auto;html=1;" edge="1" parent="1" source="4aztvtjlA2lsHuUG9XYK-6" target="4aztvtjlA2lsHuUG9XYK-11">
          <mxGeometry relative="1" as="geometry">
            <Array as="points">
              <mxPoint x="270" y="380" />
            </Array>
          </mxGeometry>
        </mxCell>
        <mxCell id="4aztvtjlA2lsHuUG9XYK-6" value="adds info to dict" style="rhombus;whiteSpace=wrap;html=1;rounded=1;" vertex="1" parent="1">
          <mxGeometry x="230" y="260" width="80" height="80" as="geometry" />
        </mxCell>
        <mxCell id="4aztvtjlA2lsHuUG9XYK-10" value="If there are more people&lt;br&gt;Continue with the while loop" style="text;html=1;strokeColor=none;fillColor=none;align=center;verticalAlign=middle;whiteSpace=wrap;rounded=0;" vertex="1" parent="1">
          <mxGeometry x="400" y="130" width="90" height="100" as="geometry" />
        </mxCell>
        <mxCell id="4aztvtjlA2lsHuUG9XYK-16" value="" style="edgeStyle=orthogonalEdgeStyle;rounded=0;orthogonalLoop=1;jettySize=auto;html=1;" edge="1" parent="1" source="4aztvtjlA2lsHuUG9XYK-11" target="4aztvtjlA2lsHuUG9XYK-15">
          <mxGeometry relative="1" as="geometry" />
        </mxCell>
        <mxCell id="4aztvtjlA2lsHuUG9XYK-11" value="For loop&lt;br&gt;determines&lt;br&gt;who bid the most" style="rhombus;whiteSpace=wrap;html=1;rounded=1;" vertex="1" parent="1">
          <mxGeometry x="385" y="340" width="80" height="80" as="geometry" />
        </mxCell>
        <mxCell id="4aztvtjlA2lsHuUG9XYK-13" value="No more people" style="text;html=1;strokeColor=none;fillColor=none;align=center;verticalAlign=middle;whiteSpace=wrap;rounded=0;" vertex="1" parent="1">
          <mxGeometry x="260" y="400" width="40" height="20" as="geometry" />
        </mxCell>
        <mxCell id="4aztvtjlA2lsHuUG9XYK-15" value="prints bidders&lt;br&gt;name and bid" style="rhombus;whiteSpace=wrap;html=1;rounded=1;" vertex="1" parent="1">
          <mxGeometry x="545" y="340" width="80" height="80" as="geometry" />
        </mxCell>
      </root>
    </mxGraphModel>
  </diagram>
</mxfile>
